<svg width="179" height="132" viewBox="0 0 179 132" fill="none" xmlns="http://www.w3.org/2000/svg" style="">
<g clip-path="url(#clip0_2001_211)">
<path d="M19.4992 11.1401C19.0127 12.2402 18.5262 13.3403 17.6082 16.0938C16.6902 18.8474 15.3407 23.2544 14.2923 27.3725C13.244 31.4906 12.4968 35.3197 11.8899 38.4541C11.2829 41.5886 10.8162 44.0284 10.0062 49.6903C9.19622 55.3524 8.04301 64.2362 7.4827 69.304C6.92238 74.3718 6.95501 75.6241 7.10194 78.8145C7.24886 82.0044 7.51007 87.1324 7.67796 91.2482C7.84585 95.3639 7.92036 98.4674 8.10207 100.231C8.28384 101.994 8.57279 102.418 8.86175 102.841" stroke="black" stroke-width="5" stroke-miterlimit="1.4" stroke-linecap="round" class="MdJbNgvi_0"></path>
<path d="M41.955 22.1133C40.6696 23.1081 39.3818 24.1049 36.3403 26.9891C33.2988 29.8734 28.4801 34.6673 24.8071 39.1578C21.1342 43.6482 18.5977 47.8443 16.6205 51.0666C14.6432 54.2889 13.2251 56.5372 11.5118 60.0588C9.79845 63.5804 7.78987 68.3747 5.76027 71.9219C3.73066 75.4697 1.68012 77.7699 2.1771 77.2921C2.67409 76.8142 5.7186 73.5577 7.90574 72.2211C10.0928 70.884 11.423 71.4666 13.8632 73.2245C16.3033 74.9819 19.8567 77.9171 23.4314 80.9698C27.0061 84.0224 30.604 87.1945 34.1978 90.3629" stroke="black" stroke-width="4.5" stroke-miterlimit="4.3" stroke-linecap="round" stroke-linejoin="round" class="MdJbNgvi_1"></path>
<path d="M42.3967 47.7871C40.8175 50.3175 39.2383 52.848 38.1172 55.372C36.9961 57.8964 36.333 60.4146 36.2539 62.8186C36.1748 65.2225 36.6796 67.5123 37.7474 68.0263C38.8152 68.5403 40.4458 67.2786 41.6406 65.0177C42.8354 62.7568 43.5942 59.4977 43.0476 56.5603C42.5011 53.623 40.6491 51.0079 38.7972 48.3928" stroke="black" stroke-width="4" stroke-linecap="round" class="MdJbNgvi_2"></path>
<path d="M55.8728 49.2622C55.0436 49.4531 54.2144 49.6439 53.3332 50.2095C52.4515 50.7751 51.5176 51.7155 51.119 53.0469C50.7203 54.3777 50.857 56.0995 51.839 57.4906C52.8209 58.8817 54.6485 59.9417 56.1114 61.2522C57.5749 62.5631 58.6736 64.1235 59.4272 65.9469C60.1812 67.7703 60.59 69.8562 60.5212 71.819C60.4524 73.7823 59.9059 75.623 59.1129 77.4343C58.32 79.2451 57.2806 81.0271 55.8613 82.4827C54.442 83.9388 52.6422 85.069 51.2244 85.2624C49.8065 85.4557 48.7704 84.7117 48.1206 83.0308C47.4708 81.3499 47.2074 78.7322 49.3995 75.3222C51.5916 71.9117 56.2391 67.71 60.1471 64.8371C64.055 61.9642 67.2236 60.4206 70.7958 56.6046C74.3675 52.7891 78.3427 46.7003 79.8408 45.1939C81.3384 43.6874 80.3584 46.763 79.5933 47.7042C78.8277 48.6453 78.276 47.4519 77.0285 49.2223C75.781 50.9928 73.8378 55.7269 73.563 59.3999C73.2882 63.0735 74.6817 65.686 76.5729 65.5052C78.4636 65.3244 80.8518 62.3504 83.0793 59.2139C85.3068 56.0775 87.373 52.7791 87.971 51.7581C88.569 50.737 87.6983 51.9933 87.4702 53.8711C87.2422 55.7495 87.6573 58.2488 88.5732 59.958C89.4896 61.6671 90.9068 62.5857 92.0729 62.7874C93.2384 62.9891 94.1527 62.474 95.4795 61.1982C96.8058 59.9229 98.5441 57.8878 99.6702 54.2908C100.796 50.6941 101.308 45.5367 102.436 39.8196C103.563 34.1024 105.305 27.826 106.763 23.3741C108.22 18.9222 109.394 16.2949 108.644 18.5761C107.893 20.8573 105.221 28.0469 103.477 35.3084C101.733 42.57 100.919 49.9034 100.808 56.077C100.697 62.2503 101.29 67.2631 101.974 71.3621C102.658 75.4611 103.433 78.6457 103.401 75.6544C103.368 72.6626 102.527 63.4947 104.414 59.8123C106.302 56.1299 110.917 57.9328 113.987 55.8134C117.057 53.694 118.581 47.652 115.077 48.0222C111.572 48.3924 103.039 55.1747 105.054 62.7235C107.069 70.2722 119.631 78.5876 132.194 86.9024" stroke="black" stroke-width="3.5" stroke-linecap="round" class="MdJbNgvi_3"></path>
<path d="M120.173 55.7399C122.602 54.7119 125.033 53.6839 126.616 52.3986C128.199 51.1139 128.935 49.5719 128.972 48.3236C129.009 47.0753 128.346 46.1208 126.992 46.0615C125.638 46.0023 123.592 46.8382 122.267 48.931C120.941 51.0237 120.336 54.3729 120.917 56.8921C121.498 59.4113 123.266 61.1001 125.328 61.6508C127.389 62.2014 129.746 61.6141 132.028 60.2921C134.311 58.9707 136.521 56.9146 138.73 54.8586" stroke="black" stroke-width="4" stroke-linecap="round" class="MdJbNgvi_4"></path>
<path d="M148.45 28.7254C148.965 28.5475 149.481 28.3697 149.896 29.1218C150.31 29.8739 150.623 31.556 150.136 33.1973C149.649 34.8387 148.361 36.4393 147.074 38.0399" stroke="black" stroke-width="4" stroke-linecap="round" class="MdJbNgvi_5"></path>
<path d="M161.663 47.5713C159.836 50.1473 158.009 52.7234 158.605 55.7734C159.201 58.8239 162.221 62.3481 163.841 65.5789C165.461 68.8097 165.681 71.747 164.724 74.9411C163.767 78.1352 161.632 81.586 159.643 83.2381C157.655 84.8907 155.814 84.7435 155.188 83.1647C154.562 81.586 155.151 78.5759 157.618 74.3543C160.085 70.1332 164.43 64.7018 167.918 61.4668C171.408 58.2318 174.04 57.1944 176.673 56.1569" stroke="black" stroke-width="3.5" stroke-linecap="round" class="MdJbNgvi_6"></path>
<path d="M28.8356 77.2305C27.9459 76.017 27.0561 74.804 26.3325 72.2339C25.6089 69.6639 25.0703 65.8698 25.2105 61.7227C25.3508 57.576 26.1576 53.5891 27.1847 50.1896C28.2119 46.7898 29.4551 44.0308 30.425 42.0162C31.3949 40.0016 32.0836 38.7469 32.7723 37.4922" stroke="black" stroke-width="2" stroke-miterlimit="3.8" stroke-linecap="round" class="MdJbNgvi_7"></path>
<path d="M46.395 18.3919C47.3812 17.4018 48.3417 16.4376 49.5236 15.4198C50.7055 14.4021 52.1154 13.3261 53.5244 12.3442C54.9337 11.3624 56.2916 10.5094 57.7245 9.70152C59.1575 8.89362 60.6488 8.14126 61.8984 7.55971C63.148 6.97821 64.1553 6.56774 65.0907 6.19226C66.0265 5.81674 66.8899 5.47627 67.8216 5.14736C68.7527 4.81845 69.7527 4.50113 70.6854 4.23371C71.6181 3.9663 72.4841 3.74879 73.3527 3.53813C74.2208 3.32748 75.0915 3.12369 75.9864 2.93895C76.8818 2.7542 77.8019 2.58852 78.8024 2.42962C79.8029 2.27071 80.8843 2.11858 81.9011 2.00661C82.9174 1.89465 83.8691 1.82284 84.8018 1.75149C85.734 1.68013 86.6472 1.60923 87.6572 1.58364C88.6672 1.55806 89.7733 1.5777 90.7375 1.60612C91.7013 1.63448 92.5226 1.67147 93.3786 1.73036C94.2346 1.78926 95.1253 1.87005 95.9214 1.94867C96.7169 2.02729 97.4184 2.10375 98.1835 2.20647C98.9492 2.30921 99.7778 2.43822 100.756 2.61931C101.734 2.80039 102.86 3.03354 103.909 3.2782C104.958 3.52286 105.93 3.779 106.972 4.07964C108.015 4.38027 109.128 4.72539 110.173 5.08391C111.218 5.44247 112.195 5.81438 113.066 6.15375C113.936 6.49313 114.7 6.79991 115.516 7.17669C116.332 7.55353 117.201 8.00031 118.055 8.44217C118.909 8.88403 119.749 9.32092 120.598 9.806C121.446 10.2911 122.304 10.8244 123.255 11.4223C124.206 12.0203 125.249 12.6829 126.354 13.4824C127.459 14.2818 128.627 15.2182 129.975 16.345C131.323 17.4719 132.852 18.7892 134.155 20.0813C135.458 21.3735 136.535 22.6406 137.719 24.0803C138.904 25.5201 140.195 27.1325 141.246 28.6087C142.297 30.0849 143.107 31.4248 143.918 32.7648" stroke="black" stroke-width="2.5" stroke-linecap="round" class="MdJbNgvi_8"></path>
<path d="M148.229 45.8271C149.039 48.3237 149.849 50.8202 150.401 54.5285C150.954 58.2366 151.248 63.1562 151.248 67.2682C151.248 71.3798 150.954 74.6839 150.415 77.7764C149.876 80.8683 149.094 83.7485 148.284 85.9513C147.474 88.1546 146.636 89.6798 145.799 91.2051" stroke="black" stroke-width="2" stroke-linecap="round" class="MdJbNgvi_9"></path>
<path d="M139.172 96.0516C138.73 97.0791 138.288 98.1071 138.509 99.2085C138.73 100.31 139.613 101.485 140.534 101.852C141.454 102.219 142.412 101.779 143.083 101.055C143.754 100.331 144.202 99.1592 144.153 98.3455C144.105 97.5323 143.524 96.4383 142.948 95.9096C142.372 95.3809 141.72 95.2635 141.02 95.4165C140.32 95.5695 139.573 95.9934 138.825 96.4173" stroke="black" stroke-width="2" class="MdJbNgvi_10"></path>
<path d="M128.57 107.518C130.3 109.093 132.03 110.667 133.759 112.242" stroke="black" stroke-width="2" class="MdJbNgvi_11"></path>
<path d="M118.847 116.428C119.9 118.118 120.953 119.808 121.573 120.569C122.193 121.329 122.38 121.159 122.91 120.603C123.439 120.047 124.311 119.105 125.182 118.163" stroke="black" stroke-width="2" class="MdJbNgvi_12"></path>
<path d="M105.813 121.494C105.003 122.155 104.193 122.816 103.861 123.624C103.53 124.431 103.677 125.386 104.156 126.12C104.635 126.854 105.445 127.368 106.292 127.479C107.139 127.589 108.022 127.295 108.703 126.836C109.385 126.377 109.863 125.753 109.955 124.927C110.047 124.101 109.752 123.073 108.893 122.492C108.033 121.911 106.607 121.777 105.181 121.643" stroke="black" stroke-width="2" class="MdJbNgvi_13"></path>
<path d="M93.3628 124.516C91.7512 123.772 90.139 123.028 89.231 124.502C88.3235 125.975 88.1196 129.663 88.0792 130.224C88.0387 130.786 88.1622 128.221 88.5132 127.051C88.8637 125.882 89.4417 126.108 90.159 126.37C90.8763 126.631 91.7333 126.927 92.5898 127.223" stroke="black" stroke-width="2" class="MdJbNgvi_14"></path>
<path d="M73.4841 121.121C74.6738 121.619 75.863 122.118 77.0022 122.502C78.1414 122.885 79.2302 123.154 79.0599 123.038C78.8892 122.922 77.4594 122.422 76.6901 122.662C75.9208 122.902 75.8125 123.882 75.6817 124.968C75.5503 126.054 75.3969 127.246 75.2434 128.437" stroke="black" stroke-width="2" class="MdJbNgvi_15"></path>
<path d="M60.8901 118.156C59.1129 120.506 57.3352 122.856 57.4035 122.605C57.4713 122.353 59.3846 119.501 60.6914 118.313C61.9978 117.125 62.6972 117.603 63.2127 118.208C63.7281 118.814 64.0597 119.549 63.8017 120.191C63.5442 120.833 62.6972 121.384 61.8506 121.384C61.0036 121.384 60.1565 120.833 60.1013 120.87C60.0461 120.907 60.7829 121.531 61.1817 122.35C61.5811 123.169 61.6431 124.183 61.7051 125.197" stroke="black" stroke-width="2" class="MdJbNgvi_16"></path>
<path d="M48.5954 108.167C47.7486 108.093 46.9017 108.02 46.0733 108.369C45.2449 108.717 44.4348 109.489 44.2323 110.443C44.0298 111.397 44.4348 112.536 45.1896 113.252C45.9444 113.968 47.049 114.261 47.9879 114.114C48.9268 113.968 49.7 113.38 50.0498 112.664C50.3996 111.948 50.3259 111.104 49.9018 110.285C49.4777 109.465 48.7031 108.671 47.9285 107.877" stroke="black" stroke-width="2" class="MdJbNgvi_17"></path>
<path d="M30.2231 99.7133C32.7757 98.0523 35.3283 96.3909 36.8992 96.0927C38.4701 95.7946 39.0592 96.8593 39.2985 97.7039C39.5378 98.548 39.4274 99.1721 38.9119 99.5944C38.3964 100.017 37.4759 100.237 36.6659 99.7594C35.8559 99.2821 35.1563 98.1074 34.4567 96.9326" stroke="black" stroke-width="2" class="MdJbNgvi_18"></path>
</g>
<defs>
<clipPath id="clip0_2001_211">
<path width="178.662" height="131.515" fill="white" d="M0 0 L178.662 0 L178.662 131.515 L0 131.515 Z" class="MdJbNgvi_19"></path>
</clipPath>
</defs>
<style data-made-with="vivus-instant">.MdJbNgvi_0{stroke-dasharray:94 96;stroke-dashoffset:95;animation:MdJbNgvi_draw 215ms ease-out 0ms forwards;}.MdJbNgvi_1{stroke-dasharray:110 112;stroke-dashoffset:111;animation:MdJbNgvi_draw 251ms ease-out 215ms forwards;}.MdJbNgvi_2{stroke-dasharray:46 48;stroke-dashoffset:47;animation:MdJbNgvi_draw 106ms ease-out 467ms forwards;}.MdJbNgvi_3{stroke-dasharray:364 366;stroke-dashoffset:365;animation:MdJbNgvi_draw 828ms ease-out 574ms forwards;}.MdJbNgvi_4{stroke-dasharray:53 55;stroke-dashoffset:54;animation:MdJbNgvi_draw 122ms ease-out 1402ms forwards;}.MdJbNgvi_5{stroke-dasharray:12 14;stroke-dashoffset:13;animation:MdJbNgvi_draw 29ms ease-out 1524ms forwards;}.MdJbNgvi_6{stroke-dasharray:82 84;stroke-dashoffset:83;animation:MdJbNgvi_draw 188ms ease-out 1554ms forwards;}.MdJbNgvi_7{stroke-dasharray:42 44;stroke-dashoffset:43;animation:MdJbNgvi_draw 97ms ease-out 1742ms forwards;}.MdJbNgvi_8{stroke-dasharray:114 116;stroke-dashoffset:115;animation:MdJbNgvi_draw 260ms ease-out 1840ms forwards;}.MdJbNgvi_9{stroke-dasharray:47 49;stroke-dashoffset:48;animation:MdJbNgvi_draw 108ms ease-out 2100ms forwards;}.MdJbNgvi_10{stroke-dasharray:20 22;stroke-dashoffset:21;animation:MdJbNgvi_draw 47ms ease-out 2209ms forwards;}.MdJbNgvi_11{stroke-dasharray:8 10;stroke-dashoffset:9;animation:MdJbNgvi_draw 20ms ease-out 2257ms forwards;}.MdJbNgvi_12{stroke-dasharray:11 13;stroke-dashoffset:12;animation:MdJbNgvi_draw 27ms ease-out 2277ms forwards;}.MdJbNgvi_13{stroke-dasharray:20 22;stroke-dashoffset:21;animation:MdJbNgvi_draw 47ms ease-out 2305ms forwards;}.MdJbNgvi_14{stroke-dasharray:19 21;stroke-dashoffset:20;animation:MdJbNgvi_draw 45ms ease-out 2352ms forwards;}.MdJbNgvi_15{stroke-dasharray:15 17;stroke-dashoffset:16;animation:MdJbNgvi_draw 36ms ease-out 2398ms forwards;}.MdJbNgvi_16{stroke-dasharray:26 28;stroke-dashoffset:27;animation:MdJbNgvi_draw 61ms ease-out 2434ms forwards;}.MdJbNgvi_17{stroke-dasharray:20 22;stroke-dashoffset:21;animation:MdJbNgvi_draw 47ms ease-out 2495ms forwards;}.MdJbNgvi_18{stroke-dasharray:19 21;stroke-dashoffset:20;animation:MdJbNgvi_draw 45ms ease-out 2543ms forwards;}.MdJbNgvi_19{stroke-dasharray:621 623;stroke-dashoffset:622;animation:MdJbNgvi_draw 1411ms ease-out 2588ms forwards;}@keyframes MdJbNgvi_draw{100%{stroke-dashoffset:0;}}@keyframes MdJbNgvi_fade{0%{stroke-opacity:1;}95.1219512195122%{stroke-opacity:1;}100%{stroke-opacity:0;}}</style></svg>
