<svg width="90" height="60" viewBox="0 0 90 60" fill="none" xmlns="http://www.w3.org/2000/svg">
<path d="M40.9727 29.7989C41.5332 29.1903 41.9243 28.5153 42.4377 27.9153C42.7503 27.5498 42.9859 27.0882 43.6381 27.0343C44.0987 26.9962 44.4806 27.2108 44.4976 27.608C44.5085 27.8614 44.4824 28.1129 44.6807 28.3355C44.7284 28.389 44.7062 28.5117 44.677 28.5917C44.4454 29.2254 44.4136 29.8372 44.7009 30.4829C44.8564 30.8324 44.8358 31.2338 44.9854 31.6141C45.2652 32.3257 46.1806 32.6125 46.9394 32.2503C48.1624 31.6667 49.0509 30.7707 50.0326 29.9564C50.1172 29.8862 50.1519 29.8186 50.1535 29.7265C50.1541 29.6882 50.1582 29.6497 50.1549 29.6117C49.9798 27.6099 50.4353 25.6317 50.4717 23.6346C50.4849 22.9059 50.5835 22.1403 50.7315 21.4109C50.8204 20.973 50.7725 20.5121 50.936 20.1058C51.2038 19.4406 51.1161 18.7393 51.3245 18.0602C51.4728 17.5768 51.5604 17.0319 51.6863 16.5273C51.841 15.907 51.9725 15.2439 52.4446 14.7156C52.6308 14.5072 52.8593 14.245 53.2105 14.3469C53.9618 14.5649 53.9742 14.6225 53.9959 15.1654C54.0254 15.9035 53.7657 16.5896 53.5396 17.2833C53.5237 17.3324 53.4952 17.3833 53.4994 17.4316C53.5552 18.0593 53.3534 18.6773 53.2035 19.2619C53.0169 19.9895 53.1593 20.7505 52.8004 21.4593C52.6533 21.7498 52.8394 22.1567 52.7394 22.479C52.4781 23.321 52.6616 24.2104 52.4268 25.0191C52.2342 25.6826 52.3632 26.3269 52.2202 26.9604C51.882 28.4587 52.1223 29.983 51.9157 31.4751C51.7991 32.3168 51.8271 33.1417 51.7684 34.0758C52.1661 33.5964 52.3723 33.139 52.6084 32.7032C53.0283 31.928 53.4953 31.1756 53.9619 30.4226C54.5239 29.5158 55.0819 28.6065 55.6742 27.7147C56.25 26.8479 56.846 25.9896 57.6521 25.2607C57.9847 24.9599 58.3869 25.0664 58.7634 25.1211C58.9901 25.154 59.0953 25.5462 58.9481 25.7486C58.6448 26.1656 58.3174 26.5694 58.0152 26.9869C57.4378 27.7844 56.7799 28.5427 56.3119 29.3939C55.9552 30.0426 55.816 30.7363 56.1947 31.436C56.2309 31.5029 56.2557 31.5872 56.2449 31.6588C56.1375 32.3663 56.3673 33.0539 56.5596 33.71C56.6997 34.1883 56.7014 34.6874 56.8987 35.1717C57.0579 35.5625 57.2254 36.0103 57.2671 36.4652C57.2988 36.81 57.4917 37.1478 57.6406 37.4793C57.9537 38.1765 58.2938 38.8646 58.6011 39.5637C58.6603 39.6982 58.4983 39.8733 58.397 39.9075C58.1751 39.9824 58.003 40.2278 57.7399 40.1408C57.0612 39.9164 56.6905 39.4374 56.3951 38.8828C56.1429 38.4093 55.9469 37.9201 55.7424 37.4323C55.6976 37.3255 55.6774 37.2111 55.6372 37.1027C55.3751 36.3956 55.2712 35.6499 54.9464 34.9582C54.9354 34.9347 54.9192 34.9074 54.9241 34.8849C55.0425 34.3381 54.5587 33.8759 54.6389 33.3334C54.6744 33.0937 54.4469 32.9547 54.3462 32.7229C53.9068 33.5462 53.4567 34.3078 53.0931 35.0995C52.8443 35.641 52.6131 36.1914 52.4507 36.7692C52.3442 37.1484 52.3058 37.571 52.0515 37.9324C51.8904 38.1614 51.9444 38.4615 51.7736 38.7188C51.4477 39.2097 51.2368 39.3736 50.8287 39.2873C50.4891 39.2155 50.1569 38.7618 50.1602 38.3588C50.1766 36.3572 50.0401 34.3567 50.1001 32.3547C50.1038 32.2313 50.1309 32.1007 50.0258 31.942C49.5158 32.2795 49.0104 32.6092 48.5112 32.9458C48.1111 33.2157 47.6232 33.3435 47.2002 33.5653C46.7777 33.7869 46.3463 33.7443 45.9047 33.7805C44.9238 33.8608 43.9353 33.0051 43.6235 32.3164C43.4163 31.8588 43.2919 31.3848 43.1733 30.9202C43.0529 30.4485 43.1468 29.9353 43.1468 29.3773C42.5362 29.7309 42.3475 30.2626 42.0297 30.7074C41.2215 31.8389 40.4608 33.0074 39.2439 33.8548C38.3941 34.4466 37.8687 34.3659 37.0877 33.7684C36.8167 33.5611 36.6386 33.2259 36.6391 32.867C36.6398 32.3314 36.6412 31.7957 36.6289 31.2602C36.621 30.9174 36.5305 30.8772 36.1929 31.0366C35.6645 31.286 35.2036 31.6246 34.7038 31.9059C33.9059 32.3549 33.2214 32.9309 32.4154 33.3649C31.6852 33.758 31.2616 34.3257 31.5297 34.87C31.9003 35.6225 31.7253 36.3725 31.7331 37.1191C31.7386 37.6545 31.4959 38.1741 31.2955 38.6912C31.1431 39.0844 30.9838 39.4696 30.7997 39.8531C30.4987 40.4802 30.0326 41.01 29.6101 41.5689C29.2204 42.0844 28.6663 42.4468 28.1468 42.8414C27.409 43.4018 25.6931 43.4954 25.1341 43.1032C24.7489 42.833 24.4554 42.5333 24.4032 42.0899C24.3679 41.7891 24.1018 41.5369 24.1846 41.2068C24.46 40.1086 24.8093 39.0543 25.5376 38.0863C26.2634 37.1213 27.1525 36.2901 27.9939 35.4157C28.3635 35.0316 28.8117 34.7052 29.1189 34.2494C28.7014 33.5219 27.9467 33.0405 27.308 32.4655C26.7993 32.0077 26.1654 31.6778 25.74 31.1258C25.2073 30.4347 25.082 29.7762 25.3365 28.9626C25.6048 28.1047 26.2247 27.5368 26.945 26.9935C27.3343 26.6999 27.8162 26.5688 28.2792 26.4237C28.7512 26.2758 29.2508 26.6269 29.2777 27.0633C29.3219 27.7791 29.2457 27.867 28.4334 28.0366C28.1696 28.0916 27.3171 28.9556 27.2671 29.2023C27.2013 29.5272 27.1245 29.864 27.3717 30.1443C27.5888 30.3906 27.8354 30.6378 28.1272 30.8095C28.9436 31.2897 29.5856 31.9264 30.2905 32.509C30.4827 32.6679 30.4399 33.0306 30.7512 32.9977C30.9527 32.9764 31.1078 32.7241 31.3152 32.6254C31.9671 32.3152 32.4513 31.8214 33.0689 31.4646C34.1449 30.843 35.1545 30.1306 36.2498 29.5314C36.7755 29.2438 37.0232 28.8848 37.1968 28.358C37.4613 27.5555 37.8545 26.7718 38.4257 26.0794C38.717 25.7262 39.6434 25.5652 40.0747 25.7766C40.2241 25.8499 40.2418 25.9729 40.2679 26.0994C40.3624 26.559 40.1724 26.9621 39.9259 27.3468C39.7446 27.6296 39.6499 27.9424 39.4854 28.2284C39.2207 28.6888 39.1016 29.1901 38.9109 29.6711C38.5577 30.5617 38.4064 31.4702 38.5698 32.5118C39.6766 31.7642 40.2529 30.7495 40.9727 29.7989ZM28.9144 36.2299C28.1327 37.0601 27.3291 37.8725 26.7096 38.812C26.1746 39.6233 25.7339 40.4442 25.7706 41.4072C25.7886 41.8779 26.0473 42.0542 26.547 41.8877C26.7578 41.8175 26.9628 41.7095 27.1363 41.5832C28.1779 40.8251 28.6923 39.7843 29.1785 38.7193C29.314 38.4225 29.334 38.0951 29.4858 37.8292C29.8729 37.1512 29.5752 36.4754 29.6836 35.7658C29.2914 35.8226 29.1208 36.0009 28.9144 36.2299Z" fill="black"/>
<path d="M10.6891 40.1359C9.72557 39.4427 8.77319 38.7783 7.69172 38.2789C7.47026 38.1766 7.23384 38.0715 7.00038 38.0028C6.42585 37.8338 6.01373 38.1468 6.01028 38.7258C6.00009 40.4348 5.99623 42.1438 5.99543 43.8529C5.99489 45.0134 5.84851 46.1957 6.05698 47.3278C6.22629 48.2473 6.08563 49.1993 6.46286 50.0902C6.53915 50.2704 6.26667 50.9584 6.08938 51.0738C5.70997 51.3208 5.02167 50.9955 4.90075 50.5621C4.703 49.8532 4.76046 49.119 4.6158 48.4206C4.44714 47.6063 4.59258 46.7867 4.42457 45.9979C3.93396 43.6943 4.31649 41.3771 4.18487 39.07C4.16932 38.7974 4.1159 38.6706 3.75267 38.644C3.14867 38.5998 2.80739 37.9739 3.05426 37.4946C3.3648 36.8916 3.60101 36.2556 3.95974 35.6764C4.37322 35.0087 4.33844 34.2878 4.50009 33.5872C4.69614 32.7375 4.50844 31.8543 4.88181 31.0353C4.89744 31.001 4.90251 30.9587 4.89664 30.922C4.74509 29.975 5.0703 29.0543 5.22898 28.1438C5.34516 27.4772 5.23217 26.7473 5.64055 26.1191C5.65452 26.0976 5.66738 26.0688 5.663 26.046C5.53175 25.3618 5.88827 24.7313 5.98061 24.0714C6.05595 23.533 6.17858 22.9808 6.33716 22.4422C6.46883 21.995 6.5152 21.5274 6.64531 21.0727C6.81982 20.4628 6.95818 19.843 7.11023 19.2301C7.21467 18.8091 7.40057 18.4021 7.45666 17.9656C7.51039 17.5475 7.67904 17.1412 7.78719 16.7277C7.89226 16.3259 8.0575 15.9392 8.18364 15.5429C8.30066 15.1753 8.37641 14.7902 8.59387 14.4427C8.74764 14.1969 8.81153 13.8953 8.88067 13.6367C9.03782 13.049 9.26501 12.4809 9.45244 11.9041C9.64201 11.3207 9.79152 10.7164 10.1547 10.1836C10.2759 10.0059 10.4422 9.85958 10.6704 9.80365C11.2051 9.67261 11.5254 9.88735 11.535 10.3722C11.5411 10.6781 11.5661 10.9876 11.5257 11.2897C11.4582 11.7937 11.3006 12.2803 11.0801 12.7544C10.9536 13.0264 10.8318 13.3481 10.8123 13.6005C10.7762 14.0667 10.539 14.4727 10.4447 14.9138C10.3642 15.2906 10.3784 15.7274 10.0836 16.0679C10.0591 16.0962 10.0411 16.1421 10.0477 16.1757C10.147 16.684 9.84457 17.1429 9.71712 17.6028C9.60083 18.0224 9.65502 18.5152 9.30991 18.8883C9.28431 18.916 9.26303 18.963 9.27087 18.9954C9.40036 19.5298 9.07897 20.0104 8.9456 20.493C8.81908 20.9508 8.78476 21.4292 8.61876 21.89C8.45291 22.3505 8.37913 22.8641 8.27705 23.3562C8.14372 23.9989 8.10181 24.6596 7.80518 25.2721C7.79387 25.2955 7.77505 25.3221 7.77943 25.3443C7.91224 26.0155 7.5965 26.6454 7.46285 27.2776C7.30286 28.0344 7.37236 28.8176 7.08214 29.5535C7.0552 29.6218 7.06409 29.7009 7.11334 29.7948C7.63124 29.0289 8.14344 28.26 8.66901 27.4981C9.02937 26.9757 9.43466 26.4757 9.77231 25.9428C10.1902 25.2833 10.7412 24.708 11.2434 24.1035C11.7764 23.4621 12.3955 22.8755 12.9483 22.2458C13.8948 21.1678 14.9891 20.2111 16.1208 19.2868C17.1298 18.4627 18.157 17.6555 19.2385 16.9008C20.0366 16.3439 20.8575 15.8231 21.7678 15.4161C22.1082 15.2639 22.4876 15.2637 22.8411 15.3458C23.2664 15.4446 23.4311 16.0827 23.1725 16.4989C23.0012 16.7747 22.8024 16.9329 22.3826 16.9748C21.9288 17.0201 21.5559 17.3264 21.171 17.5809C20.0269 18.3376 19.0403 19.2434 17.9537 20.0531C16.9365 20.811 15.9834 21.6409 15.1381 22.5396C14.5826 23.1301 13.9252 23.6497 13.4394 24.2797C12.7219 25.2103 11.8703 26.051 11.1903 27.0125C10.672 27.7452 10.1158 28.4683 9.6208 29.2141C9.14742 29.9274 8.67144 30.6434 8.25306 31.3875C7.9618 31.9054 7.60222 32.4085 7.33517 32.9292C7.01529 33.5528 6.57442 34.1392 6.48274 34.8692C6.4312 35.2796 6.25742 35.6873 6.26274 36.1216C6.26664 36.4396 6.43288 36.5658 6.76765 36.5611C7.74039 36.5474 8.54414 36.9283 9.34197 37.3555C11.0046 38.2456 12.3222 39.4817 13.7553 40.6064C14.8859 41.4938 15.9199 42.4675 17.0529 43.3439C17.7987 43.9207 18.5467 44.508 19.3423 45.0454C19.9476 45.4543 20.5495 45.8813 21.1377 46.3164C21.7615 46.7778 22.43 47.1934 23.0554 47.6533C23.3593 47.8768 23.7461 48.0569 23.7638 48.4897C23.7747 48.7559 23.5775 48.8904 23.3932 49.0106C23.2076 49.1316 22.9805 49.0717 22.7775 48.9616C21.7835 48.4225 20.8267 47.8367 19.8988 47.2161C18.6008 46.3479 17.3301 45.4554 16.1047 44.5044C14.5767 43.3186 13.0984 42.0876 11.5817 40.8924C11.2817 40.656 10.9986 40.4033 10.6891 40.1359Z" fill="black"/>
<path d="M57.1164 47.7589C56.2441 48.4868 55.2418 49.0114 54.2336 49.5371C53.5524 49.8922 52.8444 50.2011 52.1516 50.535C51.7083 50.7487 51.2224 50.8998 50.7449 51.0538C50.0975 51.2627 49.4531 51.5024 48.7824 51.6255C48.234 51.7262 47.6631 51.8232 47.1423 51.9557C46.3753 52.1508 45.5486 51.9869 44.8267 52.3297C44.7206 52.3801 44.569 52.3675 44.4384 52.3677C42.9443 52.3697 41.4369 52.4716 39.9614 52.3268C39.1698 52.2491 38.3164 52.2771 37.5529 51.9683C37.4635 51.9321 37.3524 51.9171 37.2533 51.9221C36.6551 51.952 36.1505 51.656 35.5937 51.5674C34.9236 51.4607 34.3292 51.1802 33.6764 51.0321C33.0107 50.881 32.377 50.5947 31.7607 50.3152C31.0893 50.0106 30.4535 49.6466 29.8031 49.307C29.0054 48.8905 28.2382 48.439 27.5115 47.929C26.3498 47.1137 25.2465 46.2444 24.2991 45.2435C23.3161 44.2051 22.3525 43.1534 21.6281 41.946C21.278 41.3624 20.8739 40.8007 20.5593 40.1989C20.3179 39.7372 20.1456 39.2452 19.8914 38.7954C19.7206 38.493 19.7164 38.1485 19.4754 37.8669C19.3303 37.6972 19.3847 37.4882 19.7197 37.4792C19.7929 37.4773 19.8664 37.4743 19.9394 37.4772C20.3332 37.4931 20.7907 37.3543 21.1039 37.5318C21.4117 37.7061 21.3565 38.1394 21.5122 38.4469C21.8898 39.1927 22.23 39.9501 22.7018 40.6604C22.9134 40.9791 23.03 41.3442 23.0375 41.7447C23.0543 42.6428 23.4408 43.4183 24.2751 43.9841C24.6744 44.2549 25.1604 44.3823 25.6319 44.5196C25.8026 44.5693 25.9456 44.6093 26.0725 44.7333C26.9762 45.6173 27.9696 46.4253 29.0593 47.1268C30.1556 47.8324 31.3098 48.4651 32.5409 48.9951C33.0482 49.2136 33.5823 49.3838 34.0944 49.5809C34.4026 49.6994 34.798 49.7795 35.1176 49.9013C35.4939 50.0447 35.9052 50.0704 36.273 50.2538C36.5835 50.4086 37.0047 50.4234 37.358 50.466C38.1017 50.5558 38.8491 50.6771 39.5872 50.7733C40.8223 50.9344 42.0587 51.0433 43.2768 50.9246C44.2281 50.8318 45.2002 50.8054 46.1417 50.5881C46.6263 50.4763 47.1372 50.4548 47.6237 50.3176C48.0972 50.1842 48.5805 50.0749 49.0555 49.9469C49.4181 49.8492 49.7381 49.6249 50.146 49.6356C50.4089 49.6424 50.6039 49.4562 50.8408 49.3764C52.1648 48.9308 53.3922 48.3037 54.5658 47.6165C55.8647 46.8559 57.015 45.9339 58.1214 44.964C59.271 43.9563 60.2285 42.8298 61.1138 41.6482C61.6331 40.955 62.0185 40.203 62.4229 39.4556C62.7497 38.8515 63.0219 38.2298 63.3303 37.6207C63.4687 37.3473 63.5112 37.0383 63.6342 36.7578C63.8513 36.2628 63.8501 35.7253 64.0765 35.2273C64.2084 34.9371 64.0959 34.519 64.5346 34.4072C64.8405 34.3293 65.1265 34.2208 65.4243 34.1339C65.574 34.0902 65.6777 33.9473 65.8734 33.985C66.0743 34.1537 66.0309 34.3853 65.9216 34.5437C65.756 34.7837 65.8106 35.0353 65.747 35.276C65.6172 35.7666 65.5545 36.2746 65.3103 36.7401C65.2807 36.7965 65.2558 36.8583 65.2479 36.9194C65.1594 37.6033 64.8085 38.211 64.5372 38.8442C64.287 39.4282 64.0806 40.0313 63.7336 40.5747C63.2883 41.2719 62.8955 41.9961 62.3619 42.6509C61.8072 43.3315 61.3113 44.0506 60.7237 44.7081C60.3009 45.1811 59.7709 45.5817 59.287 46.013C58.7311 46.5085 58.1722 47.0015 57.6167 47.4974C57.482 47.6177 57.3374 47.7193 57.1164 47.7589Z" fill="black"/>
<path d="M58.3987 17.6417C57.49 16.8319 56.6039 16.0387 55.5616 15.3972C55.398 15.2965 55.429 15.1534 55.3908 15.0243C55.2286 14.476 55.0557 13.9465 54.5055 13.5627C53.966 13.1863 52.9964 13.0641 52.4036 13.3523C52.2129 13.4451 51.9916 13.4563 51.8113 13.3666C50.8096 12.8686 49.7232 12.5666 48.6282 12.2757C47.9954 12.1076 47.3447 11.992 46.718 11.834C46.1242 11.6842 45.5178 11.7767 44.9713 11.628C43.4602 11.2169 41.9288 11.5358 40.4141 11.4286C39.6108 11.7516 38.706 11.5481 37.8752 11.8173C37.4473 11.956 36.9526 11.978 36.4907 12.0867C35.7984 12.2495 35.1241 12.4434 34.4617 12.6798C33.9374 12.867 33.38 12.9914 32.8744 13.2091C32.1621 13.5157 31.4812 13.8785 30.792 14.225C29.9971 14.6248 29.2675 15.107 28.5269 15.5773C28.0654 15.8704 27.7046 16.2495 27.2662 16.5613C26.3991 17.1782 25.6458 17.9016 24.9683 18.6747C23.9197 19.8714 22.9293 21.0956 22.209 22.4849C21.7923 23.2887 21.4529 24.1186 21.0239 24.9161C20.9871 24.9844 20.9827 25.0713 20.8939 25.1063C20.1103 25.4147 19.7063 26.0325 19.2597 26.6169C19.135 26.7801 18.9959 26.935 18.8712 27.0843C18.7124 27.0391 18.6741 26.9272 18.7199 26.8604C18.9513 26.5229 18.8694 26.1174 19.0608 25.7696C19.2212 25.478 19.2073 25.1432 19.3662 24.8334C19.5601 24.4554 19.7326 24.0532 19.8671 23.6595C20.0618 23.0901 20.3646 22.5741 20.6352 22.0396C21.0391 21.2421 21.5279 20.4852 22.055 19.7463C22.6331 18.9358 23.3719 18.2321 24.0359 17.4808C24.8439 16.5665 25.7606 15.7697 26.7375 15.0149C27.9132 14.1067 29.1871 13.3187 30.561 12.6388C31.6082 12.1205 32.7255 11.7604 33.8092 11.3249C34.4111 11.083 35.0438 10.8937 35.6674 10.7611C36.1842 10.6512 36.7353 10.5446 37.2383 10.4215C38.0056 10.2337 38.8233 10.3705 39.5533 10.0602C39.6886 10.0027 39.8687 10.0126 40.0282 10.0123C41.5222 10.0098 43.019 9.96539 44.5089 10.0338C45.1749 10.0644 45.852 10.1875 46.5141 10.2851C46.9094 10.3435 47.391 10.3371 47.7036 10.4978C48.1345 10.7194 48.6314 10.5989 49.0438 10.8585C49.2814 11.0081 49.6596 11.03 49.9702 11.1051C50.7974 11.3051 51.5404 11.6484 52.318 11.9403C53.3972 12.3454 54.3573 12.9186 55.3752 13.4077C55.85 13.6357 56.2534 13.9755 56.6936 14.2594C57.9474 15.0684 58.9944 16.0673 60.0472 17.0568C60.8932 17.8519 61.6286 18.7218 62.2897 19.6475C62.6633 20.1706 63.0173 20.6999 63.3377 21.2456C63.77 21.9818 64.2605 22.696 64.4835 23.5163C64.5445 23.7405 64.7215 23.9287 64.752 24.1821C64.7868 24.4718 64.6316 24.5193 64.4094 24.4451C64.0329 24.3193 63.6543 24.2654 63.2554 24.268C63.122 24.2689 62.9828 24.2117 62.9484 24.0857C62.7415 23.3288 62.2547 22.6751 61.917 21.9666C61.6378 21.381 61.2519 20.8312 60.8102 20.3289C60.5042 19.9808 60.2399 19.6066 59.9517 19.2517C59.488 18.6806 58.9271 18.1927 58.3987 17.6417Z" fill="black"/>
<path d="M84.6779 32.6351C83.9333 33.1211 83.1946 33.5687 82.6137 34.181C82.4805 34.3215 82.4102 34.444 82.568 34.5746C82.729 34.7079 82.7236 34.8663 82.7312 35.0313C82.7474 35.3817 82.7078 35.7234 82.9243 36.0661C83.0828 36.3171 82.9907 36.6513 82.854 36.9213C82.748 37.1306 82.7267 37.3359 82.7328 37.5521C82.7472 38.0614 82.4508 38.4947 82.2956 38.9632C82.1063 39.5343 81.8194 40.0624 81.4865 40.5724C80.8331 41.5735 80.0318 42.4651 78.8596 43.0488C78.1499 43.4022 77.364 43.4064 76.606 43.2647C76.1698 43.1831 75.8836 42.8241 75.647 42.4851C75.2039 41.8501 75.2943 41.1283 75.432 40.4819C75.5929 39.7268 75.9909 39.0092 76.4691 38.3338C77.399 37.0207 78.5366 35.8641 79.7921 34.7862C80.2782 34.3688 80.2252 34.0734 79.7027 33.526C79.0671 32.86 78.2157 32.4084 77.5304 31.7937C77.1216 31.4271 76.6966 31.0765 76.4432 30.6043C76.4248 30.57 76.3953 30.5356 76.3929 30.5001C76.3299 29.5753 76.2682 28.6799 77.0472 27.8792C77.4741 27.4404 77.8996 27.0345 78.4628 26.7502C78.7555 26.6025 79.0792 26.4841 79.4061 26.409C79.8209 26.3137 80.3969 26.7077 80.4517 27.0816C80.5329 27.6365 80.2745 27.9956 79.7155 28.0186C79.4209 28.0307 79.2172 28.12 79.0509 28.3071C78.7253 28.6733 78.3546 29.0301 78.256 29.4971C78.1525 29.9877 78.5662 30.2848 78.9347 30.5681C79.7935 31.2283 80.7679 31.7825 81.4356 32.6162C81.5461 32.7541 81.6923 32.8533 81.8138 33.0004C82.5458 32.6745 83.0815 32.1278 83.7419 31.7262C84.8198 31.0708 85.8868 30.4018 86.9636 29.745C87.3134 29.5317 87.6743 29.3312 88.0394 29.138C88.4633 28.9136 89.1424 29.0529 89.4054 29.4154C89.2014 29.7799 88.8507 30.03 88.4856 30.2733C87.7319 30.7755 86.9311 31.2206 86.1578 31.6979C85.6693 31.9995 85.1967 32.3227 84.6779 32.6351ZM78.6317 41.263C78.7107 41.1886 78.7947 41.1178 78.8679 41.0393C79.3907 40.4786 79.7785 39.8422 80.0828 39.181C80.3483 38.6043 80.7308 38.0425 80.6701 37.3783C80.6636 37.3067 80.7007 37.2279 80.7339 37.1583C80.9613 36.6812 80.8354 36.1956 80.8502 35.69C80.6452 35.7463 80.5381 35.8096 80.4289 35.9048C79.5228 36.6949 78.6973 37.5422 78.0221 38.4922C77.6857 38.9654 77.3657 39.4411 77.1493 39.9817C76.997 40.3619 77.1036 40.7739 76.8571 41.122C76.6479 41.4175 76.9012 41.67 77.069 41.8376C77.2437 42.0119 77.5913 41.96 77.8367 41.8119C78.0974 41.6546 78.3403 41.475 78.6317 41.263Z" fill="black"/>
<path d="M23.2362 29.1488C23.7396 30.2194 23.524 31.3162 23.4422 32.3712C23.3972 32.9521 23.1539 33.5784 22.8143 34.1497C22.5039 34.6719 22.18 35.1753 21.7298 35.6034C21.0966 36.2055 20.2865 36.4142 19.3794 36.206C18.9417 36.1055 18.6419 35.7586 18.4773 35.4394C18.1477 34.7999 17.7845 34.0927 17.9583 33.4044C18.1013 32.838 18.1015 32.2478 18.3515 31.6834C18.5018 31.3443 18.6921 30.9649 18.6904 30.5701C18.6891 30.2803 18.9004 30.0529 18.9996 29.7957C19.4095 28.7335 19.9479 27.7189 20.6889 26.7895C21.0015 26.3975 21.398 26.1419 21.8969 25.9895C22.2497 25.8817 22.5307 26.0687 22.6834 26.2817C22.8583 26.5256 22.8683 26.8415 22.6627 27.1104C22.5749 27.2251 22.4394 27.3125 22.3549 27.4285C22.22 27.6139 22.2179 27.7898 22.3887 27.9858C22.7009 28.3441 23.0424 28.6898 23.2362 29.1488ZM21.5848 29.2656C21.5117 29.2081 21.4492 29.124 21.3195 29.1915C21.2502 29.3509 21.2337 29.5251 21.1375 29.689C20.8748 30.1367 20.7128 30.6272 20.5413 31.1014C20.4046 31.4792 20.3256 31.9144 20.1781 32.2712C19.9091 32.9219 20.0503 33.5515 19.9978 34.1876C19.9874 34.3132 20.0101 34.447 20.168 34.5149C20.3595 34.5972 20.4375 34.4449 20.5226 34.3614C21.2066 33.6906 21.5242 32.8789 21.6786 32.0096C21.7029 31.8728 21.6639 31.7244 21.7506 31.5992C21.9429 31.3216 21.9145 31.0168 21.9277 30.7116C21.949 30.2213 21.7403 29.7743 21.5848 29.2656Z" fill="black"/>
<path d="M63.6254 25.4934C64.4793 25.4739 65.2082 26.2305 64.9538 26.8904C64.6269 27.7385 64.2045 28.5743 63.2843 29.0971C62.7496 29.4009 62.2053 29.6924 61.6555 29.975C61.5368 30.036 61.3659 30.0152 61.2366 30.0658C60.8081 30.2337 60.6052 30.7439 60.7937 31.145C61.0349 31.6578 61.3829 32.0906 62.0041 32.2954C62.3981 32.4253 62.8514 32.4417 63.21 32.3279C63.9858 32.0816 64.7679 31.8326 65.4641 31.4125C66.4677 30.8068 67.3961 30.134 68.22 29.3493C68.3253 29.2491 68.469 29.1627 68.6144 29.1147C68.8763 29.0282 69.2426 28.9569 69.3896 29.1498C69.5637 29.3783 69.584 29.7468 69.362 29.9788C68.8759 30.487 68.3415 30.9618 67.7125 31.3453C67.5476 31.4458 67.3931 31.5606 67.2427 31.6775C66.6087 32.1702 65.8903 32.5477 65.1622 32.9264C64.6489 33.1934 64.0734 33.2805 63.5495 33.5052C63.2631 33.6281 62.8579 33.5285 62.5091 33.556C61.1227 33.6653 60.1768 33.0693 59.5256 32.0871C59.3 31.7469 59.0786 31.3633 59.1264 30.924C59.1553 30.6587 59.1501 30.3877 59.1263 30.1215C59.0459 29.2212 59.495 28.4728 59.9856 27.7279C60.3702 27.1439 60.8985 26.6613 61.4708 26.2363C62.0621 25.7971 62.752 25.4589 63.6254 25.4934ZM61.3769 28.6802C61.3093 28.806 61.4026 28.8279 61.4881 28.7748C62.1226 28.381 62.8114 28.0417 63.2594 27.456C63.3863 27.2901 63.467 27.1282 63.3763 26.9452C63.1091 26.8573 62.9728 27.0277 62.8624 27.1303C62.3459 27.6101 61.6901 27.9921 61.3769 28.6802Z" fill="black"/>
<path d="M72.7103 23.8048C72.5176 24.1354 72.2661 24.396 71.9754 24.622C71.7603 24.789 71.4697 24.8331 71.2535 24.6624C71.0662 24.5147 71.1109 24.2616 71.24 24.0947C71.7179 23.4766 72.0152 22.779 72.325 22.1002C72.4576 21.8096 72.6189 21.4936 72.6869 21.1567C72.7487 20.851 72.8944 20.5424 73.0098 20.2373C73.1356 19.9045 73.2143 19.6133 72.9718 19.2751C72.7614 18.9816 72.7952 18.6436 73.089 18.3614C73.3395 18.1209 73.5933 17.8859 74.0176 18.013C74.3846 18.123 74.7195 18.5231 74.7348 18.8301C74.7644 19.4272 74.472 19.9551 74.2886 20.5092C74.141 20.9553 73.9353 21.3793 73.7623 21.815C73.5721 22.2938 73.3195 22.7422 73.0653 23.1949C72.9547 23.392 72.8196 23.5769 72.7103 23.8048Z" fill="black"/>
<path d="M42.428 46.395C42.0554 46.6661 41.6511 46.7704 41.1647 46.6389C40.8609 46.5568 40.6894 46.4072 40.6678 46.1401C40.6382 45.7717 40.6214 45.4023 40.6098 45.0331C40.6031 44.8214 40.5506 44.6324 40.3275 44.4585C40.2514 44.7134 40.079 44.9002 39.8186 44.9862C39.5061 45.0894 39.3371 44.8131 39.0695 44.7231C38.8992 45.1841 38.9853 45.6549 38.9784 46.1193C38.9765 46.2443 39.0882 46.2841 39.2117 46.3091C39.323 46.3318 39.4636 46.347 39.4481 46.4865C39.4328 46.624 39.292 46.6234 39.1781 46.6246C38.7535 46.6294 38.3288 46.6303 37.9042 46.6259C37.7406 46.6242 37.5487 46.5422 37.6871 46.4053C37.9856 46.1099 37.8569 45.7769 37.8874 45.458C37.9031 45.2933 37.8798 45.126 37.8922 44.961C37.912 44.6954 37.9292 44.4354 37.6137 44.276C37.9857 43.9888 38.5186 44.0204 38.9144 44.3443C39.2664 44.1399 39.6226 43.9609 40.0713 44.2069C40.1505 44.2503 40.4893 44.1164 40.5089 44.0302C40.6089 43.5889 41.1045 43.7043 41.3193 43.4863C41.4735 43.5658 41.5076 43.6567 41.5006 43.7435C41.4769 44.0365 41.5854 44.1799 41.9535 44.1095C42.0828 44.0849 42.2453 44.109 42.2431 44.2654C42.241 44.4171 42.0866 44.4418 41.9506 44.423C41.5804 44.3717 41.4943 44.5317 41.5067 44.8169C41.5244 45.2244 41.5116 45.6329 41.5143 46.0409C41.515 46.146 41.5286 46.2505 41.6801 46.2753C41.8019 46.2953 41.8658 46.2329 41.9205 46.1482C42.0096 46.0106 42.12 45.8719 42.3296 45.9273C42.5426 45.9837 42.4448 46.1615 42.4609 46.3317C42.451 46.3738 42.428 46.395 42.428 46.395Z" fill="black"/>
<path d="M31.4263 45.3823C31.4122 44.8898 31.3934 44.4315 31.3864 43.9731C31.3831 43.7586 31.3767 43.5593 31.0691 43.5026C30.9952 43.489 30.9406 43.4431 30.9452 43.3665C30.9509 43.271 31.0283 43.2286 31.1192 43.2285C31.9383 43.2275 32.7629 43.1822 33.5743 43.2521C34.0825 43.2959 34.2879 43.668 34.2836 44.2014C34.2789 44.7813 34.1462 44.953 33.5815 45.1055C33.4017 45.154 33.2469 45.2601 33.0449 45.2612C32.8734 45.2622 32.7021 45.2875 32.5231 45.3026C32.5231 45.5707 32.525 45.8093 32.5225 46.0478C32.5206 46.2221 32.6469 46.2905 32.814 46.3344C32.9049 46.3583 32.9705 46.4115 32.951 46.5028C32.9313 46.595 32.8403 46.6191 32.7514 46.6195C32.2102 46.6219 31.6689 46.6216 31.1277 46.6172C31.0355 46.6164 30.9513 46.5739 30.9488 46.4827C30.9477 46.4404 30.9862 46.3639 31.0175 46.3594C31.6138 46.273 31.3302 45.847 31.423 45.5688C31.4387 45.5216 31.426 45.4674 31.4263 45.3823ZM33.1563 44.452C33.1785 44.1619 33.2344 43.8624 32.9318 43.6436C32.7341 43.5006 32.5566 43.527 32.5335 43.7611C32.5014 44.0853 32.4785 44.4151 32.5593 44.7524C32.8323 44.785 33.0774 44.8167 33.1563 44.452Z" fill="black"/>
<path d="M47.8894 46.6039C47.7169 46.515 47.7135 46.4162 47.8622 46.3688C48.1512 46.2767 48.1477 46.0833 48.1463 45.8722C48.142 45.184 48.1336 44.4955 48.1513 43.8077C48.1584 43.5326 48.1191 43.3046 47.7809 43.1998C47.9943 42.9911 48.9855 42.8974 49.1643 43.0552C49.2808 43.1581 49.2426 43.2956 49.2431 43.4193C49.2467 44.2477 49.2565 45.0763 49.2389 45.9045C49.2323 46.21 49.3509 46.3635 49.7084 46.3576C50.0428 46.3522 50.1707 46.1992 50.1583 45.916C50.1444 45.5978 50.1516 45.2788 50.1568 44.9602C50.1614 44.6808 50.2121 44.3868 49.7628 44.3093C49.9929 44.0997 50.6267 44.0046 50.8636 44.1151C51.0294 44.1925 51.0063 44.3286 51.0078 44.45C51.0135 44.9215 51.0116 45.3931 51.0065 45.8646C51.0043 46.0753 50.993 46.2804 51.3065 46.3413C51.4006 46.3596 51.4567 46.4229 51.4262 46.5135C51.403 46.5825 51.3326 46.6069 51.2572 46.6159C51.1994 46.6228 51.1407 46.6285 51.0825 46.6283C50.0294 46.6241 48.9764 46.619 47.8894 46.6039Z" fill="black"/>
<path d="M52.4645 46.6288C51.7444 46.3515 51.3803 45.6683 51.6075 45.0838C51.9704 44.1497 52.632 43.8526 53.74 44.1264C54.0978 44.2148 54.517 44.6394 54.5047 44.9599C54.4899 45.3461 54.6325 45.75 54.3839 46.1162C54.0468 46.6129 53.4338 46.8159 52.4645 46.6288ZM53.1144 44.4135C52.9872 44.4205 52.7961 44.3865 52.7859 44.5316C52.7498 45.0418 52.2281 45.5267 52.7303 46.0776C52.8699 46.2308 52.9573 46.308 53.1612 46.2943C53.3787 46.2797 53.4089 46.1495 53.4086 45.9966C53.4078 45.5761 53.4104 45.1556 53.4085 44.7352C53.4079 44.5923 53.406 44.4452 53.1144 44.4135Z" fill="black"/>
<path d="M42.4623 46.363C42.7619 46.3471 42.8974 46.2253 42.8839 45.9682C42.8732 45.765 42.8862 45.561 42.8863 45.3574C42.8863 44.6563 42.8859 44.6563 42.3798 44.2101C42.8369 44.17 42.8753 43.8539 43.0074 43.5842C43.2112 43.1678 43.5497 42.9073 44.1185 42.9785C44.4336 43.0179 44.7742 42.8832 45.055 43.1514C45.2361 43.3243 45.3766 43.5089 45.1719 43.6699C44.9566 43.8392 44.6519 43.8178 44.4246 43.6223C44.3244 43.5361 44.2751 43.403 44.1077 43.3867C43.8701 43.7783 43.9154 43.934 44.3271 44.1146C44.4118 44.1518 44.4872 44.1867 44.4744 44.2776C44.4616 44.3684 44.3782 44.4034 44.2854 44.4052C43.9955 44.4106 43.9702 44.5784 43.9721 44.7726C43.9754 45.1163 43.9744 45.46 43.9715 45.8036C43.9695 46.046 43.927 46.2906 44.3299 46.3484C44.4985 46.3725 44.518 46.5723 44.3597 46.5838C43.7315 46.6291 43.0925 46.7392 42.4736 46.5241C42.4548 46.5176 42.4505 46.4796 42.4338 46.4257C42.428 46.3951 42.451 46.3739 42.4623 46.363Z" fill="black"/>
<path d="M46.3797 44.0848C46.9685 44.1368 47.3451 44.4065 47.4976 44.8557C47.5619 45.0449 47.7653 45.1738 47.7457 45.4079C47.6767 46.2313 46.7054 46.8522 45.7651 46.6548C44.6357 46.4177 44.1784 45.1779 44.9722 44.4475C45.3317 44.1167 45.8229 44.0307 46.3797 44.0848ZM46.3773 44.5228C45.9668 44.3223 45.7604 44.3963 45.7403 44.7761C45.7188 45.1831 45.7342 45.5915 45.7328 45.9992C45.7323 46.1528 45.7693 46.2808 45.9843 46.2957C46.1674 46.3085 46.3089 46.2924 46.4163 46.118C46.7382 45.5957 46.7616 45.0883 46.3773 44.5228Z" fill="black"/>
<path d="M37.4709 45.1056C37.5926 45.7518 37.2508 46.176 36.7351 46.5358C36.2664 46.8629 34.9425 46.5949 34.6501 46.1314C34.2825 45.5487 34.3152 45.0141 34.7914 44.4921C35.2586 43.9802 35.9179 44.0036 36.512 44.1292C37.0004 44.2325 37.3465 44.6047 37.4709 45.1056ZM35.518 45.2029C35.5188 45.4311 35.5213 45.6594 35.5198 45.8876C35.5183 46.1124 35.508 46.3306 35.8845 46.3278C36.2226 46.3254 36.3499 46.1455 36.3753 45.8992C36.4013 45.6474 36.3876 45.3924 36.3877 45.1389C36.3879 44.8327 36.4079 44.4422 35.953 44.4364C35.4782 44.4303 35.5244 44.8284 35.518 45.2029Z" fill="black"/>
<path d="M65.28 28.8397C65.4652 28.6465 65.6257 28.4711 65.7882 28.2935C66.2591 28.7606 66.0578 29.7654 65.4658 30.0272C65.3266 30.0887 65.1928 30.17 65.0796 30.2634C64.9041 30.4084 64.6971 30.5913 64.4942 30.3964C64.3071 30.2168 64.3293 29.9357 64.4929 29.7242C64.6294 29.5478 64.8356 29.4135 64.9898 29.2458C65.0969 29.1294 65.168 28.9879 65.28 28.8397Z" fill="black"/>
<path d="M50.5377 44.0003C50.0842 43.9621 50.0929 43.6896 50.1157 43.4345C50.1367 43.1981 50.2095 42.9956 50.576 42.9852C50.9513 42.9746 51.0964 43.1882 51.2011 43.4196C51.3081 43.6559 50.9925 43.9287 50.5377 44.0003Z" fill="black"/>
</svg>
