<svg width="52" height="50" viewBox="0 0 52 50" fill="none" xmlns="http://www.w3.org/2000/svg">
<g clip-path="url(#clip0_2001_255)" filter="url(#filter0_d_2001_255)">
<path d="M6.93679 9.86647C3.08505 15.414 3.56521 22.631 6.50727 28.5267C6.57711 28.6667 6.64695 28.8067 6.72203 28.9467C6.76743 29.0342 6.81108 29.1252 6.86171 29.211C6.8879 29.2635 6.91933 29.3142 6.94727 29.3632L7.10092 29.6432L7.38028 30.1245C7.43267 30.212 7.48505 30.3012 7.54092 30.3887C7.64685 30.5602 7.7551 30.7306 7.86568 30.8997C7.91108 30.9732 7.95647 31.0397 8.00536 31.1132C8.15901 31.3425 8.31616 31.5717 8.47679 31.7957L8.49076 31.8132C8.5152 31.85 8.54489 31.885 8.57108 31.9217C8.71076 32.1142 8.85044 32.3067 9.0006 32.4957L9.16298 32.7022C9.29335 32.8667 9.42605 33.0301 9.56108 33.1922L9.71298 33.3742C9.89282 33.5877 10.0779 33.7942 10.2717 34.0077L10.2822 34.0182L10.3031 34.041C10.4882 34.2422 10.6768 34.44 10.8619 34.636L11.0417 34.818C11.2493 35.0277 11.4612 35.233 11.6773 35.434C11.8798 35.6265 12.0858 35.8137 12.2936 35.994C12.2971 35.9975 12.2989 36.001 12.3041 36.0027L12.4123 36.0937C12.5986 36.2536 12.7848 36.4116 12.9711 36.568L13.2033 36.7535C13.357 36.8771 13.5123 36.9991 13.6695 37.1192L13.9192 37.31C14.092 37.4377 14.2666 37.5637 14.443 37.6845L14.635 37.8245L14.6874 37.863C14.855 37.9785 15.0262 38.0905 15.1955 38.2007C15.2689 38.2497 15.3352 38.3005 15.4155 38.3407C15.6774 38.5052 15.9428 38.6715 16.2117 38.829L16.4317 38.9532C16.629 39.0687 16.8263 39.1807 17.0289 39.2892C17.1371 39.3487 17.2489 39.4047 17.3589 39.4607C17.4985 39.536 17.6382 39.6112 17.7866 39.683L17.8862 39.7302L18.0608 39.816C18.2843 39.9233 18.5101 40.0283 18.7382 40.131L18.8779 40.1957C19.1386 40.3101 19.4023 40.4203 19.6689 40.5265L19.8609 40.6017C20.1071 40.6962 20.3568 40.7907 20.6065 40.8817L20.7008 40.9132C20.9801 41.0095 21.2595 41.0987 21.5389 41.1862L21.7396 41.2457C21.9631 41.3262 22.2495 41.4102 22.5446 41.4767L22.5987 41.4872C41.2236 44.891 46.6346 30.2697 46.6346 30.2697C42.0914 36.2022 34.0247 37.7685 26.3806 36.0255C26.0908 35.959 25.8114 35.8697 25.5268 35.7857L25.3138 35.721C25.0344 35.6358 24.7609 35.5466 24.4931 35.4532L24.3796 35.413C24.1373 35.3271 23.8963 35.2372 23.6568 35.1435L23.4543 35.063C23.1923 34.9597 22.9304 34.8495 22.672 34.7375L22.5149 34.6675C22.2931 34.566 22.0731 34.4662 21.8549 34.3612L21.6646 34.2685C21.4934 34.184 21.3234 34.0971 21.1547 34.0077C21.0412 33.9482 20.926 33.8922 20.8143 33.8292C20.6082 33.719 20.4057 33.6017 20.2031 33.4845L19.9971 33.369C19.7282 33.2115 19.4628 33.0452 19.2009 32.8807C19.1276 32.8352 19.0612 32.7862 18.9862 32.7407C18.7958 32.6182 18.6055 32.4922 18.4187 32.3627C18.3576 32.3225 18.2965 32.2752 18.2354 32.2332C18.0549 32.1061 17.8763 31.9766 17.6993 31.8447L17.4619 31.6645C17.2995 31.5402 17.1371 31.416 16.9782 31.2847L16.7635 31.1115C16.5609 30.9435 16.3601 30.7772 16.1611 30.604L16.0947 30.548C15.8817 30.359 15.6757 30.1665 15.4627 29.9705L15.2846 29.799C15.1298 29.652 14.9784 29.5032 14.8306 29.3527L14.6525 29.1742C14.4663 28.9794 14.28 28.7822 14.0938 28.5827L14.0658 28.553C13.8736 28.341 13.685 28.1257 13.5001 27.9072L13.3552 27.7287C13.2151 27.5644 13.0794 27.3964 12.9484 27.2247C12.897 27.164 12.8469 27.1022 12.7982 27.0392C12.6376 26.831 12.4804 26.6192 12.3268 26.4127C8.08394 20.6132 6.55965 12.6122 9.95219 6.04272L6.93679 9.86647Z" fill="#52616A"/>
<path d="M18.892 5.19043C17.5148 7.34194 16.7861 9.84596 16.7933 12.4022C16.7896 14.6761 17.3653 16.9133 18.466 18.9017L18.431 18.8334C18.8414 19.6332 19.2499 20.3087 19.7004 20.9509L19.662 20.8949C20.088 21.5722 20.5612 22.1602 21.0937 22.6869L21.0955 22.6887C21.2963 22.9092 21.5058 23.1262 21.7206 23.3379L21.8847 23.5024C22.0925 23.7037 22.3037 23.9032 22.5237 24.0957C22.5325 24.1027 22.5412 24.1132 22.5499 24.1184C22.7909 24.3319 23.0423 24.5384 23.2955 24.7362L23.4649 24.8692C23.7198 25.0652 23.9782 25.2577 24.2436 25.4397L24.2663 25.4572C24.3833 25.5377 24.5037 25.6147 24.6225 25.6917C24.6801 25.7302 24.7342 25.7687 24.7918 25.8037C24.9822 25.9262 25.1742 26.0452 25.3698 26.1589L25.4501 26.2062C25.6195 26.3042 25.7888 26.3987 25.9617 26.4862C26.021 26.5194 26.0822 26.5492 26.1433 26.5807L26.5012 26.7662L26.5536 26.7907C26.7998 26.9132 27.046 27.0287 27.2991 27.1389C27.3533 27.1634 27.4074 27.1844 27.4633 27.2072C27.6641 27.2929 27.8701 27.3769 28.0744 27.4557L28.3363 27.5519C28.5214 27.6202 28.7099 27.6849 28.895 27.7479L29.1499 27.8284C29.3699 27.9124 29.6406 27.9929 29.9199 28.0559L29.9618 28.0629C44.3422 30.4517 47.6631 19.3532 47.6631 19.3532C44.6704 23.6722 38.8736 25.7337 32.6909 24.1254C32.3347 24.0318 31.9818 23.9262 31.6328 23.8087C31.4407 23.7474 31.2522 23.6792 31.0636 23.6109L30.8069 23.5164C30.6015 23.4365 30.3972 23.3536 30.1941 23.2679C30.1382 23.2434 30.0823 23.2224 30.0299 23.1979C29.7769 23.0879 29.5266 22.9717 29.2791 22.8497C29.1517 22.7867 29.0277 22.7202 28.9037 22.6572L28.6872 22.5452C28.5266 22.4577 28.3677 22.3678 28.2106 22.2757L28.0971 22.2109C27.9027 22.0966 27.7106 21.9788 27.5209 21.8574L27.348 21.7419C27.2223 21.6614 27.0983 21.5774 26.9744 21.4934C26.7107 21.3098 26.4516 21.1196 26.1974 20.9229L26.0228 20.7829C23.3068 18.6659 21.2775 15.7898 20.191 12.5177L20.1561 12.3952C19.7207 11.0832 19.5007 9.70908 19.5049 8.32643C19.5049 5.98493 20.1212 3.78693 21.202 1.88818L21.1688 1.95293L18.892 5.19043Z" fill="#52616A"/>
<path d="M28.9473 1.69754C28.0274 3.07386 27.5386 4.69419 27.5435 6.35079C27.5435 7.60204 27.8159 8.78854 28.3048 9.85429L28.2838 9.80179C28.9015 11.1976 29.791 12.4558 30.9 13.5027C32.009 14.5497 33.3153 15.3643 34.7424 15.8988L34.821 15.925C34.9397 15.9705 35.0567 16.009 35.1789 16.0493L35.336 16.0983C35.4722 16.149 35.6433 16.1998 35.8179 16.24L35.8476 16.2453C43.7868 17.7853 45.9414 12.1608 46.5159 11.3348C44.6284 14.0578 41.4594 14.7105 37.5692 13.7655C37.2507 13.6843 36.9366 13.5867 36.6281 13.4733C36.2237 13.3313 35.8278 13.166 35.4425 12.978L35.5106 13.0078C34.8101 12.6693 34.1456 12.2606 33.5271 11.788L33.5551 11.809C30.0735 9.16129 27.9119 4.10904 30.1835 -0.00170898L28.9473 1.69754Z" fill="#52616A"/>
</g>
<defs>
<filter id="filter0_d_2001_255" x="0" y="0" width="52" height="50" filterUnits="userSpaceOnUse" color-interpolation-filters="sRGB">
<feFlood flood-opacity="0" result="BackgroundImageFix"/>
<feColorMatrix in="SourceAlpha" type="matrix" values="0 0 0 0 0 0 0 0 0 0 0 0 0 0 0 0 0 0 127 0" result="hardAlpha"/>
<feOffset dy="4"/>
<feGaussianBlur stdDeviation="2"/>
<feComposite in2="hardAlpha" operator="out"/>
<feColorMatrix type="matrix" values="0 0 0 0 0 0 0 0 0 0 0 0 0 0 0 0 0 0 0.25 0"/>
<feBlend mode="normal" in2="BackgroundImageFix" result="effect1_dropShadow_2001_255"/>
<feBlend mode="normal" in="SourceGraphic" in2="effect1_dropShadow_2001_255" result="shape"/>
</filter>
<clipPath id="clip0_2001_255">
<rect width="44" height="42" fill="white" transform="translate(4)"/>
</clipPath>
</defs>
</svg>
