<svg width="16" height="16" viewBox="0 0 16 16" fill="none" xmlns="http://www.w3.org/2000/svg">
<g clip-path="url(#clip0_2_106)">
<path d="M8 15.9996C7.58139 15.9992 7.17092 15.8839 6.81333 15.6662L1.80667 12.8049C1.47308 12.6031 1.19719 12.3186 1.00566 11.979C0.814137 11.6394 0.71345 11.2561 0.713333 10.8662V5.15289C0.713333 4.31755 1.13733 3.57289 1.88667 3.14622L6.83333 0.318888C7.18619 0.110024 7.58872 -0.000117195 7.99876 9.35765e-08C8.4088 0.000117382 8.81126 0.110489 9.164 0.319554L14.1107 3.14489C14.4694 3.3421 14.7681 3.63281 14.9749 3.98612C15.1817 4.33944 15.289 4.74217 15.2853 5.15155V10.8729C15.2853 11.5176 14.99 12.3156 14.194 12.8049L9.18733 15.6662C8.81133 15.8956 8.388 15.9996 7.99933 15.9996H8ZM7.66667 1.76822L2.63667 4.64155C2.55543 4.69913 2.4898 4.77601 2.44569 4.86528C2.40158 4.95454 2.38038 5.05338 2.384 5.15289L2.38467 10.9329C2.39621 11.0163 2.42412 11.0967 2.46679 11.1693C2.50946 11.242 2.56606 11.3055 2.63333 11.3562L7.67333 14.2336C7.85067 14.3482 8.116 14.3736 8.33 14.2336L13.342 11.3696C13.4164 11.321 13.4794 11.2569 13.5266 11.1816C13.5738 11.1063 13.6041 11.0217 13.6153 10.9336V5.15289C13.6178 5.05379 13.5963 4.95557 13.5525 4.86663C13.5087 4.7777 13.444 4.7007 13.364 4.64222L8.33333 1.76755C8.23428 1.70256 8.11837 1.66799 7.9999 1.66811C7.88143 1.66823 7.76559 1.70303 7.66667 1.76822Z" fill="black"/>
</g>
<defs>
<clipPath id="clip0_2_106">
<rect width="16" height="16" fill="white"/>
</clipPath>
</defs>
</svg>
