<svg width="20" height="26" viewBox="0 0 20 26" fill="none" xmlns="http://www.w3.org/2000/svg">
<path d="M19.113 3.9844L7.32779 13.0121L19.113 22.0399C19.3942 22.2553 19.6173 22.511 19.7695 22.7924C19.9217 23.0739 20 23.3756 20 23.6802C20 23.9848 19.9217 24.2865 19.7695 24.5679C19.6173 24.8494 19.3942 25.1051 19.113 25.3205C18.8318 25.536 18.498 25.7068 18.1305 25.8234C17.7631 25.94 17.3693 26 16.9716 26C16.5739 26 16.1801 25.94 15.8127 25.8234C15.4453 25.7068 15.1114 25.536 14.8302 25.3205L0.888449 14.6408C-0.296148 13.7334 -0.296148 12.2676 0.888449 11.3601L14.8302 0.680439C15.1112 0.464743 15.445 0.293617 15.8125 0.176858C16.1799 0.0600996 16.5738 7.58061e-07 16.9716 7.58061e-07C17.3694 7.58061e-07 17.7633 0.0600996 18.1308 0.176858C18.4982 0.293617 18.832 0.464743 19.113 0.680439C20.2672 1.58787 20.2976 3.07698 19.113 3.9844Z" fill="#52616A"/>
</svg>
