<svg width="45" height="45" viewBox="0 0 45 45" fill="none" xmlns="http://www.w3.org/2000/svg">
<g clip-path="url(#clip0_2001_253)">
<path fill-rule="evenodd" clip-rule="evenodd" d="M22.533 44.3755C34.5828 44.3573 44.3372 34.5553 44.3372 22.4644C44.3372 10.57 34.6278 0.774061 23.0279 0.566991C10.8456 0.349725 0.665763 10.235 0.662599 22.2222C0.659083 34.5546 10.3699 44.3931 22.533 44.3755ZM22.4974 1.62766C34.0663 1.62379 43.2839 11.0232 43.2804 22.8198C43.2765 33.957 33.8146 43.2737 22.5059 43.2762C10.9848 43.2787 1.71975 33.9377 1.7201 22.3203C1.7208 11.0024 11.13 1.63152 22.4974 1.62766ZM13.766 12.6196C13.9552 13.25 13.4257 13.4693 12.8629 13.5133C12.2705 13.559 11.6785 13.6036 10.9908 13.656C13.2605 20.418 15.4961 27.0797 17.7847 33.8965C17.9479 33.6297 18.015 33.5545 18.0446 33.4666C19.301 29.7112 20.5646 25.9582 21.789 22.1923C21.9008 21.8488 21.8453 21.3939 21.723 21.0409C21.075 19.1706 20.2988 17.3411 19.7306 15.4483C19.3422 14.1524 18.8268 13.3139 17.295 13.4641C17.0342 13.4897 16.7156 12.9283 16.4235 12.6382C16.7768 12.4273 17.1277 12.0392 17.4842 12.0339C20.6033 11.986 23.723 11.9869 26.8421 12.0367C27.1999 12.0427 27.5508 12.441 27.9041 12.6572C27.5947 12.9399 27.3279 13.3639 26.9662 13.4732C26.3857 13.6483 25.742 13.6152 25.0473 13.6771L31.8497 33.913C32.8801 30.4902 33.8388 27.3473 34.7712 24.1962C35.603 21.3834 35.1073 18.7565 33.6033 16.279C33.1512 15.5341 32.5957 14.8112 32.3394 13.9988C32.0483 13.0745 31.8065 12.0223 31.9608 11.0952C32.2227 9.5241 33.4282 8.74398 35.0595 8.59457C26.1326 0.309648 12.1046 3.27543 6.93553 12.2772C8.92537 12.1854 10.8252 12.0648 12.7265 12.0388C13.0858 12.0343 13.6817 12.338 13.766 12.6196ZM17.3228 40.0313C17.2813 40.1526 17.2788 40.2876 17.2462 40.489C21.0933 41.5557 24.8663 41.4787 28.7278 40.1775L22.8286 24.0197C20.9407 29.508 19.1302 34.7687 17.3228 40.0313ZM14.35 39.3007L5.46213 14.9199C1.45256 22.752 4.50272 34.7016 14.35 39.3007ZM41.2192 23.6344C41.5012 19.9311 40.2236 14.8035 39.1204 14.0983C38.9973 15.4606 39.0831 16.9762 38.6922 18.3571C37.7721 21.6108 36.6471 24.8079 35.5636 28.0138C34.3859 31.4985 33.1617 34.9674 31.9576 38.4433C37.615 35.0897 40.7239 30.1401 41.2192 23.6344Z" fill="#52616A"/>
</g>
<defs>
<clipPath id="clip0_2001_253">
<rect width="45" height="45" fill="white"/>
</clipPath>
</defs>
</svg>
