<svg width="20" height="26" viewBox="0 0 20 26" fill="none" xmlns="http://www.w3.org/2000/svg">
<path d="M0.886992 22.0156L12.6722 12.9879L0.886992 3.96015C0.605781 3.74473 0.382714 3.489 0.230524 3.20755C0.0783333 2.9261 2.96304e-09 2.62444 0 2.3198C-2.96303e-09 2.01516 0.0783333 1.7135 0.230524 1.43205C0.382714 1.1506 0.605781 0.894868 0.886992 0.679455C1.1682 0.464041 1.50205 0.293166 1.86947 0.176585C2.23689 0.0600039 2.63069 -2.26975e-09 3.02838 0C3.42607 2.26975e-09 3.81987 0.0600039 4.18729 0.176585C4.55471 0.293166 4.88855 0.464041 5.16976 0.679455L19.1116 11.3592C20.2961 12.2666 20.2961 13.7324 19.1116 14.6399L5.16976 25.3196C4.88876 25.5353 4.55498 25.7064 4.18753 25.8231C3.82009 25.9399 3.42618 26 3.02838 26C2.63057 26 2.23667 25.9399 1.86922 25.8231C1.50177 25.7064 1.168 25.5353 0.886992 25.3196C-0.26723 24.4121 -0.297605 22.923 0.886992 22.0156Z" fill="#52616A"/>
</svg>
